<svg xmlns="http://www.w3.org/2000/svg" xmlns:xlink="http://www.w3.org/1999/xlink" width="500" zoomAndPan="magnify" viewBox="0 0 375 374.999991" height="500" preserveAspectRatio="xMidYMid meet" version="1.0"><defs><g/><clipPath id="fcd503523b"><path d="M 97.679688 143.414062 L 149.429688 143.414062 L 149.429688 205 L 97.679688 205 Z M 97.679688 143.414062 " clip-rule="nonzero"/></clipPath></defs><rect x="-37.5" width="450" fill="#ffffff" y="-37.499999" height="449.999989" fill-opacity="1"/><rect x="-37.5" width="450" fill="#ffffff" y="-37.499999" height="449.999989" fill-opacity="1"/><g clip-path="url(#fcd503523b)"><path fill="#0066ff" d="M 147.738281 160.335938 C 146.726562 159.175781 145.261719 158.503906 143.722656 158.503906 L 136.011719 158.503906 L 136.011719 156.554688 C 136.011719 149.621094 130.367188 143.992188 123.449219 143.992188 C 116.53125 143.992188 110.886719 149.636719 110.886719 156.554688 L 110.886719 158.503906 L 103.175781 158.503906 C 101.636719 158.503906 100.171875 159.175781 99.160156 160.335938 C 98.148438 161.492188 97.695312 163.046875 97.898438 164.570312 L 102.753906 199.3125 C 103.191406 202.480469 105.933594 204.851562 109.113281 204.851562 L 137.757812 204.851562 C 140.9375 204.851562 143.679688 202.480469 144.132812 199.3125 L 148.984375 164.570312 C 149.21875 163.046875 148.75 161.507812 147.738281 160.335938 Z M 115.285156 156.554688 C 115.285156 152.054688 118.949219 148.390625 123.449219 148.390625 C 127.949219 148.390625 131.613281 152.054688 131.613281 156.554688 L 131.613281 158.503906 L 115.285156 158.503906 Z M 128.84375 190.445312 L 123.742188 185.34375 L 120.167969 188.917969 L 115.460938 173.644531 L 130.734375 178.351562 L 127.160156 181.925781 L 132.257812 187.027344 Z M 128.84375 190.445312 " fill-opacity="1" fill-rule="nonzero"/></g><g fill="#000000" fill-opacity="1"><g transform="translate(159.427861, 179.85327)"><g><path d="M 1.824219 0 L 5.28125 0 L 5.28125 -15.207031 L 1.824219 -15.207031 Z M 1.824219 0 "/></g></g></g><g fill="#000000" fill-opacity="1"><g transform="translate(166.528926, 179.85327)"><g><path d="M 1.824219 0 L 11.925781 0 L 11.925781 -3.238281 L 5.28125 -3.238281 L 5.28125 -15.207031 L 1.824219 -15.207031 Z M 1.824219 0 "/></g></g></g><g fill="#000000" fill-opacity="1"><g transform="translate(179.037231, 179.85327)"><g><path d="M 5.800781 0 L 9.253906 0 L 9.253906 -5.367188 L 14.839844 -15.207031 L 10.90625 -15.207031 L 9.039062 -11.6875 L 7.539062 -8.929688 L 6.019531 -11.6875 L 4.128906 -15.207031 L 0.195312 -15.207031 L 5.800781 -5.324219 Z M 5.800781 0 "/></g></g></g><g fill="#000000" fill-opacity="1"><g transform="translate(194.064572, 179.85327)"><g><path d="M 0.195312 0 L 3.890625 0 L 4.910156 -2.628906 L 10.949219 -2.628906 L 11.972656 0 L 15.664062 0 L 9.625 -15.207031 L 6.234375 -15.207031 Z M 5.800781 -5.34375 L 7.929688 -10.90625 L 10.082031 -5.34375 Z M 5.800781 -5.34375 "/></g></g></g><g fill="#000000" fill-opacity="1"><g transform="translate(209.917112, 179.85327)"><g><path d="M 7.125 0.304688 C 10.734375 0.304688 12.949219 -1.414062 12.949219 -4.28125 C 12.949219 -6.691406 11.363281 -8.125 7.582031 -9.015625 C 5.257812 -9.558594 4.453125 -10.144531 4.453125 -11.082031 C 4.453125 -12.078125 5.34375 -12.6875 6.800781 -12.6875 C 8.386719 -12.6875 9.34375 -11.863281 9.34375 -10.492188 L 12.667969 -10.492188 C 12.667969 -13.558594 10.363281 -15.511719 6.757812 -15.511719 C 3.257812 -15.511719 1.085938 -13.796875 1.085938 -11.015625 C 1.085938 -8.539062 2.757812 -7.0625 6.320312 -6.300781 C 8.472656 -5.84375 9.449219 -5.214844 9.449219 -4.148438 C 9.449219 -3.128906 8.539062 -2.542969 7.105469 -2.542969 C 5.429688 -2.542969 4.34375 -3.390625 4.34375 -4.84375 L 0.957031 -4.84375 C 0.957031 -1.695312 3.300781 0.304688 7.125 0.304688 Z M 7.125 0.304688 "/></g></g></g><g fill="#000000" fill-opacity="1"><g transform="translate(223.838739, 179.85327)"><g/></g></g><g fill="#000000" fill-opacity="1"><g transform="translate(159.427861, 203.016725)"><g><path d="M 1.824219 0 L 8.972656 0 C 12.058594 0 14.144531 -1.695312 14.144531 -4.257812 C 14.144531 -5.886719 13.296875 -7.191406 11.863281 -7.820312 C 13.015625 -8.496094 13.6875 -9.691406 13.6875 -11.125 C 13.6875 -13.621094 11.710938 -15.207031 8.625 -15.207031 L 1.824219 -15.207031 Z M 5.234375 -2.738281 L 5.234375 -6.386719 L 8.453125 -6.386719 C 9.820312 -6.386719 10.601562 -5.714844 10.601562 -4.5625 C 10.601562 -3.410156 9.820312 -2.738281 8.453125 -2.738281 Z M 5.234375 -9.015625 L 5.234375 -12.46875 L 8.105469 -12.46875 C 9.429688 -12.46875 10.167969 -11.863281 10.167969 -10.753906 C 10.167969 -9.644531 9.429688 -9.015625 8.105469 -9.015625 Z M 5.234375 -9.015625 "/></g></g></g><g fill="#000000" fill-opacity="1"><g transform="translate(174.390058, 203.016725)"><g><path d="M 1.824219 0 L 12.058594 0 L 12.058594 -2.933594 L 5.257812 -2.933594 L 5.257812 -6.257812 L 11.230469 -6.257812 L 11.230469 -9.148438 L 5.257812 -9.148438 L 5.257812 -12.296875 L 11.820312 -12.296875 L 11.820312 -15.207031 L 1.824219 -15.207031 Z M 1.824219 0 "/></g></g></g><g fill="#000000" fill-opacity="1"><g transform="translate(187.549838, 203.016725)"><g><path d="M 1.824219 0 L 5.257812 0 L 5.257812 -9.320312 L 11.972656 0 L 14.902344 0 L 14.902344 -15.207031 L 11.472656 -15.207031 L 11.472656 -5.953125 L 4.757812 -15.207031 L 1.824219 -15.207031 Z M 1.824219 0 "/></g></g></g><g fill="#000000" fill-opacity="1"><g transform="translate(204.271015, 203.016725)"><g><path d="M 6.039062 0 L 9.429688 0 L 15.273438 -15.207031 L 11.578125 -15.207031 L 7.757812 -4.976562 L 5.929688 -9.796875 L 3.910156 -15.207031 L 0.195312 -15.207031 Z M 6.039062 0 "/></g></g></g><g fill="#000000" fill-opacity="1"><g transform="translate(219.732718, 203.016725)"><g/></g></g></svg>